# xmcd CD database file
#
# Track frame offsets:
#	150
#	18927
#	40334
#	61372
#	79792
#	99367
#	116676
#	137228
#	159669
#	181809
#	198852
#	222472
#	243983
#	261781
#	285652
#	297703
#
# Disc length: 4248 seconds
#
# Revision: 14
# Processed by: cddbd v1.5.1PL0 Copyright (c) Steve Scherf et al.
# Submitted via: CDex 1.51
#
DISCID=ec109610
DTITLE=许美静 - 许美静 Review 1996-1999
DYEAR=1999
DGENRE=Pop
TTITLE0=你抽的烟
TTITLE1=铁窗
TTITLE2=遗憾
TTITLE3=颜色
TTITLE4=明知道
TTITLE5=影子情人
TTITLE6=快乐无罪
TTITLE7=都是夜归人
TTITLE8=蔓延
TTITLE9=让位
TTITLE10=荡漾
TTITLE11=单数
TTITLE12=只是这人生
TTITLE13=城里的月光
TTITLE14=发呆
TTITLE15=边界1999
EXTD=YEAR: 1999
EXTT0=
EXTT1=
EXTT2=
EXTT3=
EXTT4=
EXTT5=
EXTT6=
EXTT7=
EXTT8=
EXTT9=
EXTT10=
EXTT11=
EXTT12=
EXTT13=
EXTT14=
EXTT15=
PLAYORDER=
